HIERARCHY
ROOT Hips
{
	OFFSET 0.00000 0.00000 0.00000
	CHANNELS 6 Xposition Yposition Zposition Zrotation Yrotation Xrotation 
	JOINT LHipJoint
	{
		OFFSET 0 0 0
		CHANNELS 3 Zrotation Yrotation Xrotation
		JOINT LeftHip
		{
			OFFSET 1.77779 -1.88989 0.48267
			CHANNELS 3 Zrotation Yrotation Xrotation
			JOINT LeftKnee
			{
				OFFSET 2.53442 -6.96327 0.00000
				CHANNELS 3 Zrotation Yrotation Xrotation
				JOINT LeftAnkle
				{
					OFFSET 2.71068 -7.44755 0.00000
					CHANNELS 3 Zrotation Yrotation Xrotation
					JOINT LeftToe
					{
						OFFSET 0.17992 -0.49431 2.22524
						CHANNELS 3 Zrotation Yrotation Xrotation
						End Site
						{
							OFFSET 0.00000 -0.00000 1.14687
						}
					}
				}
			}
		}
	}
	JOINT RHipJoint
	{
		OFFSET 0 0 0
		CHANNELS 3 Zrotation Yrotation Xrotation
		JOINT RightHip
		{
			OFFSET -1.58469 -1.88989 0.48267
			CHANNELS 3 Zrotation Yrotation Xrotation
			JOINT RightKnee
			{
				OFFSET -2.60386 -7.15404 0.00000
				CHANNELS 3 Zrotation Yrotation Xrotation
				JOINT RightAnkle
				{
					OFFSET -2.73334 -7.50979 0.00000
					CHANNELS 3 Zrotation Yrotation Xrotation
					JOINT RightToe
					{
						OFFSET -0.25618 -0.70384 2.21822
						CHANNELS 3 Zrotation Yrotation Xrotation
						End Site
						{
							OFFSET -0.00000 -0.00000 1.16381
						}
					}
				}
			}
		}
	}
	JOINT lowerback
	{
		OFFSET 0 0 0
		CHANNELS 3 Zrotation Yrotation Xrotation
		JOINT Chest
		{
			OFFSET 0.03410 2.01612 -0.22230
			CHANNELS 3 Zrotation Yrotation Xrotation
			JOINT Chest2
			{
				OFFSET 0.03465 2.03012 0.00937
				CHANNELS 3 Zrotation Yrotation Xrotation
				JOINT lowerneck
				{
					OFFSET 0 0 0
					CHANNELS 3 Zrotation Yrotation Xrotation
					JOINT Neck
					{
						OFFSET -0.00219 1.70459 0.20857
						CHANNELS 3 Zrotation Yrotation Xrotation
						JOINT Head
						{
							OFFSET 0.02518 1.72339 -0.22179
							CHANNELS 3 Zrotation Yrotation Xrotation
							End Site
							{
								OFFSET 0.00282 1.74122 -0.09823
							}
						}
					}
				}
				JOINT LeftCollar
				{
					OFFSET 0 0 0
					CHANNELS 3 Zrotation Yrotation Xrotation
					JOINT LeftShoulder
					{
						OFFSET 3.36358 1.00547 -0.37661
CHANNELS 3 Zrotation Xrotation Yrotation
						JOINT LeftElbow
						{
OFFSET 0 -5.065070 0.000000
CHANNELS 3 Zrotation Xrotation Yrotation
							JOINT LeftWrist
							{
OFFSET 0 -3.601960 0.000000
CHANNELS 3 Zrotation Xrotation Yrotation
								JOINT lhand
								{
									OFFSET 0 0 0
CHANNELS 3 Zrotation Xrotation Yrotation
									JOINT LFingers
									{
OFFSET 0 -0.450350 0.000000
CHANNELS 3 Zrotation Xrotation Yrotation
										End Site
										{
OFFSET 0 -0.363080 0.000000
										}
									}
								}
								JOINT LThumb
								{
OFFSET 0 0.000000 0.000000
CHANNELS 3 Zrotation Xrotation Yrotation
									End Site
									{
OFFSET 0 -0.368620 0.368620
									}
								}
							}
						}
					}
				}
				JOINT RightCollar
				{
					OFFSET 0 0 0
					CHANNELS 3 Zrotation Yrotation Xrotation
					JOINT RightShoulder
					{
						OFFSET -3.50159 0.80383 -0.71526
CHANNELS 3 Zrotation Xrotation Yrotation
						JOINT RightElbow
						{
OFFSET 0 -5.363940 0.000000
CHANNELS 3 Zrotation Xrotation Yrotation
							JOINT RightWrist
							{
OFFSET 0 -3.580350 0.000000
CHANNELS 3 Zrotation Xrotation Yrotation
								JOINT rhand
								{
									OFFSET 0 0 0
CHANNELS 3 Zrotation Xrotation Yrotation
									JOINT RFingers
									{
OFFSET 0 -0.663750 0.000000
CHANNELS 3 Zrotation Xrotation Yrotation
										End Site
										{
OFFSET 0 -0.535130 0.000000
										}
									}
								}
								JOINT RThumb
								{
OFFSET 0 0.000000 0.000000
CHANNELS 3 Zrotation Xrotation Yrotation
									End Site
									{
OFFSET 0 -0.543300 0.543300
									}
								}
							}
						}
					}
				}
			}
		}
	}
}
MOTION
Frames: 8
Frame Time: 0.008333333333333333
-0.385451 18.472383 8.460227 -4.157568 4.185890 2.998335 0.000000 0.000000 0.000000 -17.622408 -12.665219 -29.262611 2.296088 9.457273 27.236460 -0.316745 -9.981265 4.842584 1.178366 -6.888123 -19.384940 0.000000 0.000000 0.000000 36.208837 3.780039 13.034370 -9.919628 -17.348938 59.197988 -0.186428 -12.967133 11.331080 -0.497496 -4.521806 12.549603 6.068503 2.055693 12.668781 1.729829 3.806985 -0.985837 -2.298063 1.627022 -7.905030 -0.965104 -5.099946 -19.441162 3.709881 -7.096632 8.967938 0.583674 -3.164241 6.026949 0.000000 0.000000 0.000000 -2.465716 36.596276 -34.059331 129.473145 -53.205594 93.404485 20.642301 -32.629652 -2.643509 0.000000 0.000000 0.000000 -7.125000 0.000000 0.000000 -4.826686 32.778152 -1.449473 0.000000 0.000000 0.000000 -9.708177 2.833818 47.943295 -138.671345 -48.824926 -100.562409 -16.561651 -28.342444 -40.055348 0.000000 0.000000 0.000000 7.125000 0.000000 0.000000 9.810374 -10.742686 11.576013
-0.389454 18.453948 8.579182 -4.109904 4.287371 2.886105 0.000000 0.000000 0.000000 -17.857023 -12.392157 -29.109532 2.288563 9.442818 27.190580 -0.323835 -10.107195 5.061853 1.155197 -6.823168 -19.192820 0.000000 0.000000 0.000000 36.162911 3.716616 12.748111 -10.214784 -17.520314 60.192164 -0.190385 -12.749100 11.253340 -0.494889 -4.510119 12.516508 5.994308 2.038379 12.782544 1.702886 3.776154 -0.926211 -2.284088 1.615266 -7.910291 -0.986512 -5.115339 -19.415386 3.815044 -7.120395 8.827713 0.620223 -3.170622 5.983448 0.000000 0.000000 0.000000 -2.335349 36.317427 -34.218494 129.543635 -53.177782 93.460954 20.645503 -32.599256 -2.627728 0.000000 0.000000 0.000000 -7.125000 0.000000 0.000000 -4.822958 32.761456 -1.450319 0.000000 0.000000 0.000000 -9.610630 2.997555 47.839984 -138.157835 -49.117177 -100.176728 -15.829353 -27.289831 -37.537544 0.000000 0.000000 0.000000 7.125000 0.000000 0.000000 9.742423 -8.139457 11.150238
-0.393435 18.434222 8.697332 -4.062268 4.393324 2.778742 0.000000 0.000000 0.000000 -18.080512 -12.135462 -28.972512 2.288016 9.441708 27.187118 -0.331076 -10.233520 5.264044 1.137670 -6.773891 -19.047124 0.000000 0.000000 0.000000 36.105363 3.648283 12.434538 -10.516760 -17.685860 61.196477 -0.195605 -12.525402 11.190287 -0.493014 -4.501741 12.492773 5.921598 2.018187 12.920118 1.673345 3.744203 -0.887102 -2.275017 1.601249 -7.951157 -1.004926 -5.130502 -19.384728 3.918025 -7.145558 8.717236 0.655128 -3.177340 5.948654 0.000000 0.000000 0.000000 -2.192577 36.072626 -34.391776 129.637556 -53.140394 93.536096 20.651813 -32.569477 -2.598293 0.000000 0.000000 0.000000 -7.125000 0.000000 0.000000 -4.815770 32.730295 -1.451761 0.000000 0.000000 0.000000 -9.499307 3.203143 47.735935 -137.630916 -49.408617 -99.778441 -15.335938 -26.533638 -35.696391 0.000000 0.000000 0.000000 7.125000 0.000000 0.000000 9.677078 -6.242656 10.820139
-0.397369 18.411671 8.813725 -4.014696 4.509053 2.682018 0.000000 0.000000 0.000000 -18.279676 -11.914546 -28.870597 2.302722 9.469771 27.276385 -0.338647 -10.360709 5.428901 1.132479 -6.758887 -19.002913 0.000000 0.000000 0.000000 36.022408 3.569217 12.061253 -10.833644 -17.838665 62.222948 -0.203587 -12.289323 11.159342 -0.492739 -4.500597 12.489503 5.852138 1.991702 13.109745 1.638123 3.709805 -0.892843 -2.276664 1.582288 -8.069860 -1.016796 -5.145162 -19.343399 4.016235 -7.173782 8.671790 0.686439 -3.184796 5.932895 0.000000 0.000000 0.000000 -2.022688 35.902257 -34.595927 129.782698 -53.082072 93.652054 20.664919 -32.541048 -2.539010 0.000000 0.000000 0.000000 -7.125000 0.000000 0.000000 -4.801018 32.667513 -1.454506 0.000000 0.000000 0.000000 -9.357870 3.500221 47.630269 -137.074682 -49.698284 -99.352597 -15.364733 -26.425433 -35.334427 0.000000 0.000000 0.000000 7.125000 0.000000 0.000000 9.617429 -5.890138 10.699195
-0.401303 18.389119 8.930118 -3.967123 4.624783 2.585295 0.000000 0.000000 0.000000 -18.478841 -11.693631 -28.768682 2.317429 9.497835 27.365653 -0.346217 -10.487897 5.593758 1.127287 -6.743883 -18.958703 0.000000 0.000000 0.000000 35.939454 3.490150 11.687968 -11.150528 -17.991469 63.249419 -0.211570 -12.053244 11.128397 -0.492465 -4.499454 12.486232 5.782677 1.965217 13.299372 1.602901 3.675406 -0.898583 -2.278310 1.563328 -8.188563 -1.028666 -5.159823 -19.302071 4.114445 -7.202005 8.626345 0.717750 -3.192252 5.917137 0.000000 0.000000 0.000000 -1.852799 35.731887 -34.800078 129.927840 -53.023750 93.768012 20.678024 -32.512619 -2.479727 0.000000 0.000000 0.000000 -7.125000 0.000000 0.000000 -4.786266 32.604730 -1.457251 0.000000 0.000000 0.000000 -9.216433 3.797298 47.524603 -136.518448 -49.987951 -98.926754 -15.393528 -26.317228 -34.972464 0.000000 0.000000 0.000000 7.125000 0.000000 0.000000 9.557781 -5.537620 10.578251
-0.405236 18.366568 9.046511 -3.919551 4.740513 2.488571 0.000000 0.000000 0.000000 -18.678005 -11.472716 -28.666766 2.332135 9.525898 27.454920 -0.353787 -10.615085 5.758616 1.122095 -6.728880 -18.914492 0.000000 0.000000 0.000000 35.856499 3.411084 11.314683 -11.467412 -18.144273 64.275889 -0.219552 -11.817165 11.097452 -0.492190 -4.498310 12.482962 5.713217 1.938732 13.489000 1.567679 3.641007 -0.904324 -2.279957 1.544368 -8.307266 -1.040537 -5.174483 -19.260742 4.212655 -7.230229 8.580899 0.749061 -3.199709 5.901379 0.000000 0.000000 0.000000 -1.682910 35.561518 -35.004228 130.072982 -52.965428 93.883970 20.691129 -32.484189 -2.420445 0.000000 0.000000 0.000000 -7.125000 0.000000 0.000000 -4.771514 32.541948 -1.459995 0.000000 0.000000 0.000000 -9.074996 4.094375 47.418936 -135.962215 -50.277618 -98.500910 -15.422323 -26.209023 -34.610500 0.000000 0.000000 0.000000 7.125000 0.000000 0.000000 9.498132 -5.185103 10.457307
-0.409170 18.344017 9.162903 -3.871978 4.856242 2.391848 0.000000 0.000000 0.000000 -18.877170 -11.251800 -28.564851 2.346841 9.553961 27.544187 -0.361358 -10.742273 5.923473 1.116903 -6.713876 -18.870282 0.000000 0.000000 0.000000 35.773544 3.332017 10.941398 -11.784296 -18.297077 65.302360 -0.227534 -11.581086 11.066507 -0.491916 -4.497167 12.479691 5.643756 1.912247 13.678627 1.532457 3.606609 -0.910065 -2.281604 1.525407 -8.425968 -1.052407 -5.189144 -19.219413 4.310865 -7.258452 8.535454 0.780372 -3.207165 5.885620 0.000000 0.000000 0.000000 -1.513021 35.391149 -35.208379 130.218125 -52.907106 93.999929 20.704235 -32.455760 -2.361162 0.000000 0.000000 0.000000 -7.125000 0.000000 0.000000 -4.756761 32.479166 -1.462740 0.000000 0.000000 0.000000 -8.933559 4.391452 47.313270 -135.405981 -50.567285 -98.075067 -15.451119 -26.100819 -34.248537 0.000000 0.000000 0.000000 7.125000 0.000000 0.000000 9.438483 -4.832585 10.336362
-0.411769 18.320281 9.280524 -3.801147 4.972704 2.301542 0.000000 0.000000 0.000000 -19.088007 -11.047984 -28.437804 2.373091 9.602850 27.700560 -0.375777 -10.941585 6.018748 1.042430 -6.475674 -18.176829 0.000000 0.000000 0.000000 35.591503 3.193468 10.516125 -12.112658 -18.426967 66.333978 -0.235193 -11.325947 11.037565 -0.458390 -4.331187 12.012085 5.561912 1.880054 13.842756 1.488793 3.559181 -0.932539 -2.281162 1.500460 -8.549538 -1.039640 -5.182462 -19.172765 4.373541 -7.263093 8.563726 0.798309 -3.203939 5.889739 0.000000 0.000000 0.000000 -1.332622 35.272594 -35.410247 130.428434 -52.820033 94.167272 20.682646 -32.413569 -2.377556 0.000000 0.000000 0.000000 -7.125000 0.000000 0.000000 -4.775325 32.496067 -1.466496 0.000000 0.000000 0.000000 -8.802352 4.682844 47.217102 -134.780229 -50.863930 -97.587566 -15.496001 -26.057458 -34.052529 0.000000 0.000000 0.000000 7.125000 0.000000 0.000000 9.390916 -4.646152 10.255087
